<svg id="Capa_1" enable-background="new 0 0 512 512" height="512" viewBox="0 0 512 512" width="512" xmlns="http://www.w3.org/2000/svg"><g><g><g><g><g><g><g><g><g><circle cx="256" cy="256" fill="#96e8ff" r="256"/></g></g></g></g></g></g></g></g><path d="m265.884 511.813c136.804-5.194 246.116-117.738 246.116-255.813 0-30.198-5.229-59.176-14.831-86.076l-93.573-93.573-75.258 47 27.404 27.404-285.564 164.662z" fill="#19cffc"/><g><path d="m303.607 466.844c-47.808 0-86.703-38.895-86.703-86.703v-41.05h47v41.05c0 21.893 17.811 39.703 39.703 39.703s39.704-17.811 39.704-39.703v-283.533h47v283.533c.001 47.808-38.895 86.703-86.704 86.703z" fill="#333940"/></g><g><path d="m70.266 188.581v91.182c0 19.435 15.756 35.191 35.191 35.191h64.531c15.418 0 29.04-10.036 33.61-24.761l1.14-3.672c4.57-14.725 18.192-24.761 33.61-24.761 15.418 0 29.04 10.036 33.61 24.76l1.14 3.672c4.57 14.725 18.192 24.76 33.61 24.76h64.531c19.435 0 35.191-15.756 35.191-35.191v-91.182c0-19.435-15.756-35.191-35.191-35.191h-265.78c-19.438.002-35.193 15.758-35.193 35.193z" fill="#fff"/><path d="m371.237 153.39h-132.787v108.374c15.375.045 28.947 10.067 33.507 24.759l1.14 3.672c4.57 14.725 18.192 24.76 33.61 24.76h64.531c19.436 0 35.191-15.756 35.191-35.191v-91.182c-.001-19.436-15.757-35.192-35.192-35.192z" fill="#e9edf5"/><path d="m371.236 329.955h-64.53c-22.116 0-41.38-14.192-47.937-35.314l-1.14-3.672c-2.637-8.498-10.386-14.207-19.283-14.207s-16.647 5.709-19.284 14.207l-1.14 3.672c-6.554 21.122-25.818 35.314-47.935 35.314h-64.531c-27.675 0-50.191-22.516-50.191-50.191v-91.183c0-27.675 22.516-50.191 50.191-50.191h265.78c27.676 0 50.191 22.516 50.191 50.191v91.183c.001 27.675-22.515 50.191-50.191 50.191zm-132.889-83.193c22.117 0 41.381 14.192 47.936 35.315l1.14 3.671c2.637 8.498 10.387 14.207 19.284 14.207h64.53c11.134 0 20.191-9.058 20.191-20.191v-91.183c0-11.133-9.058-20.191-20.191-20.191h-265.78c-11.133 0-20.191 9.058-20.191 20.191v91.183c0 11.133 9.058 20.191 20.191 20.191h64.531c8.897 0 16.646-5.709 19.283-14.206l1.14-3.673c6.555-21.122 25.819-35.314 47.936-35.314z" fill="#707789"/><path d="m371.236 138.39h-132.786v30h132.787c11.134 0 20.191 9.058 20.191 20.191v91.183c0 11.133-9.058 20.191-20.191 20.191h-64.53c-8.897 0-16.647-5.709-19.284-14.207l-1.14-3.671c-6.544-21.09-25.759-35.269-47.833-35.313v30.002c8.853.044 16.554 5.738 19.18 14.203l1.14 3.672c6.557 21.122 25.82 35.314 47.937 35.314h64.53c27.676 0 50.191-22.516 50.191-50.191v-91.183c0-27.675-22.516-50.191-50.192-50.191z" fill="#555a66"/></g><g><path d="m103.277 193.132h43.605v30h-43.605z" fill="#dce1eb" transform="matrix(.707 -.707 .707 .707 -110.549 149.457)"/></g><g><path d="m98.589 223.748h114.22v30h-114.22z" fill="#dce1eb" transform="matrix(.707 -.707 .707 .707 -123.216 180.02)"/></g><g><path d="m202.075 325.256h75.258v47h-75.258z" fill="#414952"/></g><g><path d="m239.831 325.256h37.502v47h-37.502z" fill="#23272b"/></g><g><path d="m328.339 76.352h75.258v47h-75.258z" fill="#23272b"/></g></g></svg>