<svg id="Capa_1" enable-background="new 0 0 512 512" height="512" viewBox="0 0 512 512" width="512" xmlns="http://www.w3.org/2000/svg"><g><g><g><g><g><g><g><g><g><circle cx="256" cy="256" fill="#a3d4ff" r="256"/></g></g></g></g></g></g></g></g><path d="m512 256c0-10.223-.599-20.306-1.764-30.216l-104.122-104.121-324.733 237.835 151.47 151.47c7.625.683 15.346 1.032 23.149 1.032 141.385 0 256-114.615 256-256z" fill="#65b1fc"/><g><path d="m412.496 345.967h-312.992v-205.847c0-16.521 13.393-29.914 29.914-29.914h253.165c16.521 0 29.914 13.393 29.914 29.914v205.847z" fill="#636978"/></g><g><path d="m412.496 140.12c0-16.521-13.393-29.914-29.914-29.914h-126.462v235.761h156.376z" fill="#414952"/></g><g><path d="m122.877 136.289h266.247v196.128h-266.247z" fill="#fff"/></g><g><path d="m256.12 136.289h133.003v196.128h-133.003z" fill="#e9edf5"/></g><g><path d="m413.476 365.952h-314.952c-14.37 0-26.019-11.649-26.019-26.019v-20.727h366.989v20.727c0 14.37-11.648 26.019-26.018 26.019z" fill="#414952"/></g><g><path d="m256.12 319.207v46.746h157.355c14.37 0 26.019-11.649 26.019-26.019v-20.727z" fill="#23272b"/></g><g><g><path d="m162.379 214.537h44.336v88.41h-44.336z" fill="#ff6c52"/></g><g><path d="m233.832 185.436h44.336v117.511h-44.336z" fill="#fa0"/></g><g><path d="m256.12 185.436h22.048v117.511h-22.048z" fill="#ff9500"/></g><g><path d="m305.284 157.939h44.336v145.008h-44.336z" fill="#ffce00"/></g></g></g></svg>